# xmcd
#
# Track frame offsets:
#	150
#	8222
#	20741
#	30657
#	41107
#	53944
#	62044
#	71578
#	82904
#	98200
#	106122
#	114669
#	125170
#	130641
#	139709
#	149671
#	162566
#
# Disc length: 2290 seconds
# Revision: 1
# Processed by: cddbd v1.5.2PL0 Copyright (c) Steve Scherf et al.
# Submitted via: dBpowerAMP V12.0
#
DISCID=f508f011
DTITLE=Chet Atkins - Songs For Christmas [CHL-25285]
DYEAR=1961
DGENRE=Christmas
TTITLE0=Jingle Bell Rock
TTITLE1=Winter Wonderland
TTITLE2=Jolly Old St. Nicholas
TTITLE3=White Christmas
TTITLE4=Blue Christmas
TTITLE5=Jingle Bells
TTITLE6=Silver Bells
TTITLE7=Little Drummer Boy
TTITLE8=Medley: The Coventry Carol - God Rest Ye Merry, Gentlemen
TTITLE9=The First Noel
TTITLE10=Hark! The Herald Angels Sing
TTITLE11=O Come, All Ye Faithful
TTITLE12=Deck The Halls
TTITLE13=Silent Night
TTITLE14=The Bells Of St. Mary's
TTITLE15=Christmas Carols
TTITLE16=Jingle Bells (alternate version)
EXTD=
EXTT0=
EXTT1=
EXTT2=
EXTT3=
EXTT4=
EXTT5=
EXTT6=
EXTT7=
EXTT8=
EXTT9=
EXTT10=
EXTT11=
EXTT12=
EXTT13=
EXTT14=
EXTT15=
EXTT16=
PLAYORDER=
